<svg width="412" height="206" viewBox="0 0 412 206" fill="none" xmlns="http://www.w3.org/2000/svg">
<path d="M254.149 61.6785C254.374 61.4208 254.643 61.2134 254.942 61.0682C255.24 60.9229 255.562 60.8427 255.889 60.8321C256.217 60.8215 256.543 60.8806 256.849 61.0062C257.155 61.1318 257.435 61.3213 257.673 61.564C269.144 73.2455 280.654 80.3527 294.198 83.9754C296.025 78.586 296.187 72.6543 294.609 66.8675C292.515 59.1893 287.639 52.4997 280.512 47.5229C274.15 43.0801 267.79 41.923 261.638 40.8047C253.877 39.3934 246.545 38.0595 239.549 30.0512C238.77 29.1654 237.709 28.81 236.695 29.098C235.536 29.4348 234.759 30.4251 234.386 32.0622C233.514 35.8937 234.075 46.632 236.528 57.9682C240.468 76.181 246.756 85.3968 251.337 89.9222C257.257 95.7647 264.988 99 272.67 99C274.118 99.0025 275.564 98.8876 276.996 98.6564C283.494 97.592 288.903 94.0636 291.951 88.9302C278.01 85.0095 266.1 77.5536 254.251 65.4932C254.012 65.2501 253.82 64.9586 253.686 64.6352C253.551 64.3118 253.477 63.9629 253.468 63.6085C253.458 63.2542 253.514 62.9013 253.631 62.5701C253.748 62.2389 253.924 61.9359 254.149 61.6785ZM301.833 85.6259C299.211 85.1897 296.672 84.6423 294.199 83.9804C293.691 85.4806 293.059 86.9281 292.31 88.3054C292.196 88.5159 292.076 88.7248 291.953 88.9302C294.96 89.7718 298.005 90.4463 301.076 90.9513C301.403 91.0133 301.738 91.0043 302.061 90.9246C302.385 90.8449 302.69 90.6962 302.96 90.4873C303.229 90.2783 303.458 90.0132 303.631 89.7076C303.805 89.402 303.92 89.0619 303.971 88.7074C304.021 88.3529 304.006 87.9911 303.925 87.6432C303.845 87.2952 303.701 86.9682 303.502 86.6812C303.303 86.3941 303.053 86.153 302.767 85.9718C302.48 85.7905 302.164 85.673 301.835 85.6259H301.833Z" fill="black"/>
<path d="M113.299 69.9961C113.299 66.0898 114.096 62.3626 115.691 58.8145C117.286 55.2337 119.581 52.0762 122.576 49.3418C125.571 46.6074 129.233 44.4264 133.562 42.7988C137.924 41.1712 142.872 40.3574 148.406 40.3574C153.908 40.3574 158.855 41.1875 163.25 42.8477C167.677 44.4753 171.421 46.7214 174.48 49.5859C177.573 52.4505 179.933 55.8197 181.561 59.6934C183.221 63.5671 184.051 67.7174 184.051 72.1445C184.051 72.6979 184.035 73.3001 184.002 73.9512C184.002 74.5697 183.969 75.1393 183.904 75.6602H129.412C130.031 77.3854 131.023 78.9642 132.391 80.3965C133.79 81.8288 135.532 83.0658 137.615 84.1074C139.699 85.1491 142.107 85.9629 144.842 86.5488C147.576 87.1022 150.604 87.3789 153.924 87.3789C157.244 87.3789 160.548 87.0371 163.836 86.3535C167.124 85.6374 170.265 84.7422 173.26 83.668L178.143 94.7031C176.255 95.582 174.334 96.3633 172.381 97.0469C170.46 97.6979 168.442 98.2513 166.326 98.707C164.243 99.1302 162.046 99.4557 159.734 99.6836C157.456 99.9115 155.047 100.025 152.508 100.025C146.03 100.025 140.35 99.2441 135.467 97.6816C130.584 96.1191 126.499 93.987 123.211 91.2852C119.923 88.5833 117.449 85.4095 115.789 81.7637C114.129 78.1178 113.299 74.1953 113.299 69.9961ZM168.719 64.3809C168.198 62.7858 167.384 61.3047 166.277 59.9375C165.203 58.5378 163.852 57.3333 162.225 56.3242C160.597 55.2826 158.709 54.4688 156.561 53.8828C154.412 53.2969 152.052 53.0039 149.48 53.0039C146.746 53.0039 144.256 53.3132 142.01 53.9316C139.764 54.5501 137.794 55.3802 136.102 56.4219C134.409 57.4635 132.993 58.668 131.854 60.0352C130.747 61.4023 129.933 62.8509 129.412 64.3809H168.719ZM172.16 70.3379C172.16 66.1061 172.925 62.1673 174.455 58.5215C176.018 54.8431 178.28 51.6693 181.242 49C184.237 46.2982 187.883 44.1823 192.18 42.6523C196.509 41.1224 201.441 40.3574 206.975 40.3574C209.383 40.3574 211.809 40.5039 214.25 40.7969C216.691 41.0898 219.035 41.513 221.281 42.0664C223.56 42.5872 225.692 43.222 227.678 43.9707C229.663 44.6868 231.389 45.4844 232.854 46.3633L226.164 57.252C223.007 55.7871 220.012 54.7129 217.18 54.0293C214.38 53.3457 211.532 53.0039 208.635 53.0039C205.314 53.0039 202.336 53.4434 199.699 54.3223C197.062 55.1686 194.816 56.373 192.961 57.9355C191.138 59.4655 189.738 61.2884 188.762 63.4043C187.818 65.4876 187.346 67.7663 187.346 70.2402C187.346 72.7142 187.85 75.0091 188.859 77.125C189.901 79.2083 191.35 81.015 193.205 82.5449C195.093 84.0423 197.355 85.2305 199.992 86.1094C202.661 86.9557 205.624 87.3789 208.879 87.3789C212.46 87.3789 215.829 86.8743 218.986 85.8652C222.176 84.8561 225.139 83.5052 227.873 81.8125L234.562 92.7012C232.837 93.7428 230.965 94.7194 228.947 95.6309C226.929 96.5098 224.764 97.2747 222.453 97.9258C220.174 98.5768 217.766 99.0814 215.227 99.4395C212.72 99.8301 210.116 100.025 207.414 100.025C201.913 100.025 196.981 99.2767 192.619 97.7793C188.257 96.2819 184.562 94.2148 181.535 91.5781C178.508 88.9089 176.18 85.7676 174.553 82.1543C172.958 78.541 172.16 74.6022 172.16 70.3379Z" fill="black"/>
<path d="M197 194.846L205.5 205L214 194.846M205.5 203.59V183" stroke="black" stroke-width="2" stroke-linecap="round" stroke-linejoin="round"/>
<path d="M10.3711 115.562L3.31055 135H0.424805L8.55469 113.672H10.415L10.3711 115.562ZM16.2891 135L9.21387 115.562L9.16992 113.672H11.0303L19.1895 135H16.2891ZM15.9229 127.104V129.419H3.94043V127.104H15.9229ZM25.3564 133.359L29.7656 119.15H32.666L26.3086 137.446C26.1621 137.837 25.9668 138.257 25.7227 138.706C25.4883 139.165 25.1855 139.6 24.8145 140.01C24.4434 140.42 23.9941 140.752 23.4668 141.006C22.9492 141.27 22.3291 141.401 21.6064 141.401C21.3916 141.401 21.1182 141.372 20.7861 141.313C20.4541 141.255 20.2197 141.206 20.083 141.167L20.0684 138.97C20.1465 138.979 20.2686 138.989 20.4346 138.999C20.6104 139.019 20.7324 139.028 20.8008 139.028C21.416 139.028 21.9385 138.945 22.3682 138.779C22.7979 138.623 23.1592 138.354 23.4521 137.974C23.7549 137.603 24.0137 137.09 24.2285 136.436L25.3564 133.359ZM22.1191 119.15L26.2354 131.455L26.9385 134.312L24.9902 135.308L19.1602 119.15H22.1191ZM44.8096 131.338V119.15H47.5342V135H44.9414L44.8096 131.338ZM45.3223 127.998L46.4502 127.969C46.4502 129.023 46.3379 130 46.1133 130.898C45.8984 131.787 45.5469 132.559 45.0586 133.213C44.5703 133.867 43.9307 134.38 43.1396 134.751C42.3486 135.112 41.3867 135.293 40.2539 135.293C39.4824 135.293 38.7744 135.181 38.1299 134.956C37.4951 134.731 36.9482 134.385 36.4893 133.916C36.0303 133.447 35.6738 132.837 35.4199 132.085C35.1758 131.333 35.0537 130.43 35.0537 129.375V119.15H37.7637V129.404C37.7637 130.117 37.8418 130.708 37.998 131.177C38.1641 131.636 38.3838 132.002 38.6572 132.275C38.9404 132.539 39.2529 132.725 39.5947 132.832C39.9463 132.939 40.3076 132.993 40.6787 132.993C41.8311 132.993 42.7441 132.773 43.418 132.334C44.0918 131.885 44.5752 131.284 44.8682 130.532C45.1709 129.771 45.3223 128.926 45.3223 127.998ZM61.6553 131.924V112.5H64.3799V135H61.8896L61.6553 131.924ZM50.9912 127.251V126.943C50.9912 125.732 51.1377 124.634 51.4307 123.647C51.7334 122.651 52.1582 121.797 52.7051 121.084C53.2617 120.371 53.9209 119.824 54.6826 119.443C55.4541 119.053 56.3135 118.857 57.2607 118.857C58.2568 118.857 59.126 119.033 59.8682 119.385C60.6201 119.727 61.2549 120.229 61.7725 120.894C62.2998 121.548 62.7148 122.339 63.0176 123.267C63.3203 124.194 63.5303 125.244 63.6475 126.416V127.764C63.54 128.926 63.3301 129.971 63.0176 130.898C62.7148 131.826 62.2998 132.617 61.7725 133.271C61.2549 133.926 60.6201 134.429 59.8682 134.78C59.1162 135.122 58.2373 135.293 57.2314 135.293C56.3037 135.293 55.4541 135.093 54.6826 134.692C53.9209 134.292 53.2617 133.73 52.7051 133.008C52.1582 132.285 51.7334 131.436 51.4307 130.459C51.1377 129.473 50.9912 128.403 50.9912 127.251ZM53.7158 126.943V127.251C53.7158 128.042 53.7939 128.784 53.9502 129.478C54.1162 130.171 54.3701 130.781 54.7119 131.309C55.0537 131.836 55.4883 132.251 56.0156 132.554C56.543 132.847 57.1729 132.993 57.9053 132.993C58.8037 132.993 59.541 132.803 60.1172 132.422C60.7031 132.041 61.1719 131.538 61.5234 130.913C61.875 130.288 62.1484 129.609 62.3438 128.877V125.347C62.2266 124.81 62.0557 124.292 61.8311 123.794C61.6162 123.286 61.333 122.837 60.9814 122.446C60.6396 122.046 60.2148 121.729 59.707 121.494C59.209 121.26 58.6182 121.143 57.9346 121.143C57.1924 121.143 56.5527 121.299 56.0156 121.611C55.4883 121.914 55.0537 122.334 54.7119 122.871C54.3701 123.398 54.1162 124.014 53.9502 124.717C53.7939 125.41 53.7158 126.152 53.7158 126.943ZM77.9443 132.29V124.131C77.9443 123.506 77.8174 122.964 77.5635 122.505C77.3193 122.036 76.9482 121.675 76.4502 121.421C75.9521 121.167 75.3369 121.04 74.6045 121.04C73.9209 121.04 73.3203 121.157 72.8027 121.392C72.2949 121.626 71.8945 121.934 71.6016 122.314C71.3184 122.695 71.1768 123.105 71.1768 123.545H68.4668C68.4668 122.979 68.6133 122.417 68.9062 121.86C69.1992 121.304 69.6191 120.801 70.166 120.352C70.7227 119.893 71.3867 119.531 72.1582 119.268C72.9395 118.994 73.8086 118.857 74.7656 118.857C75.918 118.857 76.9336 119.053 77.8125 119.443C78.7012 119.834 79.3945 120.425 79.8926 121.216C80.4004 121.997 80.6543 122.979 80.6543 124.16V131.543C80.6543 132.07 80.6982 132.632 80.7861 133.228C80.8838 133.823 81.0254 134.336 81.2109 134.766V135H78.3838C78.2471 134.688 78.1396 134.272 78.0615 133.755C77.9834 133.228 77.9443 132.739 77.9443 132.29ZM78.4131 125.391L78.4424 127.295H75.7031C74.9316 127.295 74.2432 127.358 73.6377 127.485C73.0322 127.603 72.5244 127.783 72.1143 128.027C71.7041 128.271 71.3916 128.579 71.1768 128.95C70.9619 129.312 70.8545 129.736 70.8545 130.225C70.8545 130.723 70.9668 131.177 71.1914 131.587C71.416 131.997 71.7529 132.324 72.2021 132.568C72.6611 132.803 73.2227 132.92 73.8867 132.92C74.7168 132.92 75.4492 132.744 76.084 132.393C76.7188 132.041 77.2217 131.611 77.5928 131.104C77.9736 130.596 78.1787 130.103 78.208 129.624L79.3652 130.928C79.2969 131.338 79.1113 131.792 78.8086 132.29C78.5059 132.788 78.1006 133.267 77.5928 133.726C77.0947 134.175 76.499 134.551 75.8057 134.854C75.1221 135.146 74.3506 135.293 73.4912 135.293C72.417 135.293 71.4746 135.083 70.6641 134.663C69.8633 134.243 69.2383 133.682 68.7891 132.979C68.3496 132.266 68.1299 131.47 68.1299 130.591C68.1299 129.741 68.2959 128.994 68.6279 128.35C68.96 127.695 69.4385 127.153 70.0635 126.724C70.6885 126.284 71.4404 125.952 72.3193 125.728C73.1982 125.503 74.1797 125.391 75.2637 125.391H78.4131ZM87.627 122.534V135H84.917V119.15H87.4805L87.627 122.534ZM86.9824 126.475L85.8545 126.431C85.8643 125.347 86.0254 124.346 86.3379 123.428C86.6504 122.5 87.0898 121.694 87.6562 121.011C88.2227 120.327 88.8965 119.8 89.6777 119.429C90.4688 119.048 91.3428 118.857 92.2998 118.857C93.0811 118.857 93.7842 118.965 94.4092 119.18C95.0342 119.385 95.5664 119.717 96.0059 120.176C96.4551 120.635 96.7969 121.23 97.0312 121.963C97.2656 122.686 97.3828 123.569 97.3828 124.614V135H94.6582V124.585C94.6582 123.755 94.5361 123.091 94.292 122.593C94.0479 122.085 93.6914 121.719 93.2227 121.494C92.7539 121.26 92.1777 121.143 91.4941 121.143C90.8203 121.143 90.2051 121.284 89.6484 121.567C89.1016 121.851 88.6279 122.241 88.2275 122.739C87.8369 123.237 87.5293 123.809 87.3047 124.453C87.0898 125.088 86.9824 125.762 86.9824 126.475ZM100.781 127.251V126.914C100.781 125.771 100.947 124.712 101.279 123.735C101.611 122.749 102.09 121.895 102.715 121.172C103.34 120.439 104.097 119.873 104.985 119.473C105.874 119.062 106.87 118.857 107.974 118.857C109.087 118.857 110.088 119.062 110.977 119.473C111.875 119.873 112.637 120.439 113.262 121.172C113.896 121.895 114.38 122.749 114.712 123.735C115.044 124.712 115.21 125.771 115.21 126.914V127.251C115.21 128.394 115.044 129.453 114.712 130.43C114.38 131.406 113.896 132.261 113.262 132.993C112.637 133.716 111.88 134.282 110.991 134.692C110.112 135.093 109.116 135.293 108.003 135.293C106.89 135.293 105.889 135.093 105 134.692C104.111 134.282 103.35 133.716 102.715 132.993C102.09 132.261 101.611 131.406 101.279 130.43C100.947 129.453 100.781 128.394 100.781 127.251ZM103.491 126.914V127.251C103.491 128.042 103.584 128.789 103.77 129.492C103.955 130.186 104.233 130.801 104.604 131.338C104.985 131.875 105.459 132.3 106.025 132.612C106.592 132.915 107.251 133.066 108.003 133.066C108.745 133.066 109.395 132.915 109.951 132.612C110.518 132.3 110.986 131.875 111.357 131.338C111.729 130.801 112.007 130.186 112.192 129.492C112.388 128.789 112.485 128.042 112.485 127.251V126.914C112.485 126.133 112.388 125.396 112.192 124.702C112.007 123.999 111.724 123.379 111.343 122.842C110.972 122.295 110.503 121.865 109.937 121.553C109.38 121.24 108.726 121.084 107.974 121.084C107.231 121.084 106.577 121.24 106.011 121.553C105.454 121.865 104.985 122.295 104.604 122.842C104.233 123.379 103.955 123.999 103.77 124.702C103.584 125.396 103.491 126.133 103.491 126.914ZM127.837 130.796C127.837 130.405 127.749 130.044 127.573 129.712C127.407 129.37 127.061 129.062 126.533 128.789C126.016 128.506 125.234 128.262 124.189 128.057C123.311 127.871 122.515 127.651 121.802 127.397C121.099 127.144 120.498 126.836 120 126.475C119.512 126.113 119.136 125.688 118.872 125.2C118.608 124.712 118.477 124.141 118.477 123.486C118.477 122.861 118.613 122.271 118.887 121.714C119.17 121.157 119.565 120.664 120.073 120.234C120.591 119.805 121.211 119.468 121.934 119.224C122.656 118.979 123.462 118.857 124.351 118.857C125.62 118.857 126.704 119.082 127.603 119.531C128.501 119.98 129.189 120.581 129.668 121.333C130.146 122.075 130.386 122.9 130.386 123.809H127.676C127.676 123.369 127.544 122.944 127.28 122.534C127.026 122.114 126.65 121.768 126.152 121.494C125.664 121.221 125.063 121.084 124.351 121.084C123.599 121.084 122.988 121.201 122.52 121.436C122.061 121.66 121.724 121.948 121.509 122.3C121.304 122.651 121.201 123.022 121.201 123.413C121.201 123.706 121.25 123.97 121.348 124.204C121.455 124.429 121.641 124.639 121.904 124.834C122.168 125.02 122.539 125.195 123.018 125.361C123.496 125.527 124.106 125.693 124.849 125.859C126.147 126.152 127.217 126.504 128.057 126.914C128.896 127.324 129.521 127.827 129.932 128.423C130.342 129.019 130.547 129.741 130.547 130.591C130.547 131.284 130.4 131.919 130.107 132.495C129.824 133.071 129.409 133.569 128.862 133.989C128.325 134.399 127.681 134.722 126.929 134.956C126.187 135.181 125.352 135.293 124.424 135.293C123.027 135.293 121.846 135.044 120.879 134.546C119.912 134.048 119.18 133.403 118.682 132.612C118.184 131.821 117.935 130.986 117.935 130.107H120.659C120.698 130.85 120.913 131.44 121.304 131.88C121.694 132.31 122.173 132.617 122.739 132.803C123.306 132.979 123.867 133.066 124.424 133.066C125.166 133.066 125.786 132.969 126.284 132.773C126.792 132.578 127.178 132.31 127.441 131.968C127.705 131.626 127.837 131.235 127.837 130.796ZM150.894 132.29V124.131C150.894 123.506 150.767 122.964 150.513 122.505C150.269 122.036 149.897 121.675 149.399 121.421C148.901 121.167 148.286 121.04 147.554 121.04C146.87 121.04 146.27 121.157 145.752 121.392C145.244 121.626 144.844 121.934 144.551 122.314C144.268 122.695 144.126 123.105 144.126 123.545H141.416C141.416 122.979 141.562 122.417 141.855 121.86C142.148 121.304 142.568 120.801 143.115 120.352C143.672 119.893 144.336 119.531 145.107 119.268C145.889 118.994 146.758 118.857 147.715 118.857C148.867 118.857 149.883 119.053 150.762 119.443C151.65 119.834 152.344 120.425 152.842 121.216C153.35 121.997 153.604 122.979 153.604 124.16V131.543C153.604 132.07 153.647 132.632 153.735 133.228C153.833 133.823 153.975 134.336 154.16 134.766V135H151.333C151.196 134.688 151.089 134.272 151.011 133.755C150.933 133.228 150.894 132.739 150.894 132.29ZM151.362 125.391L151.392 127.295H148.652C147.881 127.295 147.192 127.358 146.587 127.485C145.981 127.603 145.474 127.783 145.063 128.027C144.653 128.271 144.341 128.579 144.126 128.95C143.911 129.312 143.804 129.736 143.804 130.225C143.804 130.723 143.916 131.177 144.141 131.587C144.365 131.997 144.702 132.324 145.151 132.568C145.61 132.803 146.172 132.92 146.836 132.92C147.666 132.92 148.398 132.744 149.033 132.393C149.668 132.041 150.171 131.611 150.542 131.104C150.923 130.596 151.128 130.103 151.157 129.624L152.314 130.928C152.246 131.338 152.061 131.792 151.758 132.29C151.455 132.788 151.05 133.267 150.542 133.726C150.044 134.175 149.448 134.551 148.755 134.854C148.071 135.146 147.3 135.293 146.44 135.293C145.366 135.293 144.424 135.083 143.613 134.663C142.812 134.243 142.188 133.682 141.738 132.979C141.299 132.266 141.079 131.47 141.079 130.591C141.079 129.741 141.245 128.994 141.577 128.35C141.909 127.695 142.388 127.153 143.013 126.724C143.638 126.284 144.39 125.952 145.269 125.728C146.147 125.503 147.129 125.391 148.213 125.391H151.362ZM168.018 122.197V141.094H165.293V119.15H167.783L168.018 122.197ZM178.696 126.943V127.251C178.696 128.403 178.56 129.473 178.286 130.459C178.013 131.436 177.612 132.285 177.085 133.008C176.567 133.73 175.928 134.292 175.166 134.692C174.404 135.093 173.53 135.293 172.544 135.293C171.538 135.293 170.649 135.127 169.878 134.795C169.106 134.463 168.452 133.979 167.915 133.345C167.378 132.71 166.948 131.948 166.626 131.06C166.313 130.171 166.099 129.17 165.981 128.057V126.416C166.099 125.244 166.318 124.194 166.641 123.267C166.963 122.339 167.388 121.548 167.915 120.894C168.452 120.229 169.102 119.727 169.863 119.385C170.625 119.033 171.504 118.857 172.5 118.857C173.496 118.857 174.38 119.053 175.151 119.443C175.923 119.824 176.572 120.371 177.1 121.084C177.627 121.797 178.022 122.651 178.286 123.647C178.56 124.634 178.696 125.732 178.696 126.943ZM175.972 127.251V126.943C175.972 126.152 175.889 125.41 175.723 124.717C175.557 124.014 175.298 123.398 174.946 122.871C174.604 122.334 174.165 121.914 173.628 121.611C173.091 121.299 172.451 121.143 171.709 121.143C171.025 121.143 170.43 121.26 169.922 121.494C169.424 121.729 168.999 122.046 168.647 122.446C168.296 122.837 168.008 123.286 167.783 123.794C167.568 124.292 167.407 124.81 167.3 125.347V129.141C167.495 129.824 167.769 130.469 168.12 131.074C168.472 131.67 168.94 132.153 169.526 132.524C170.112 132.886 170.85 133.066 171.738 133.066C172.471 133.066 173.101 132.915 173.628 132.612C174.165 132.3 174.604 131.875 174.946 131.338C175.298 130.801 175.557 130.186 175.723 129.492C175.889 128.789 175.972 128.042 175.972 127.251ZM184.863 121.641V135H182.153V119.15H184.79L184.863 121.641ZM189.814 119.062L189.8 121.582C189.575 121.533 189.36 121.504 189.155 121.494C188.96 121.475 188.735 121.465 188.481 121.465C187.856 121.465 187.305 121.562 186.826 121.758C186.348 121.953 185.942 122.227 185.61 122.578C185.278 122.93 185.015 123.35 184.819 123.838C184.634 124.316 184.512 124.844 184.453 125.42L183.691 125.859C183.691 124.902 183.784 124.004 183.97 123.164C184.165 122.324 184.463 121.582 184.863 120.938C185.264 120.283 185.771 119.775 186.387 119.414C187.012 119.043 187.754 118.857 188.613 118.857C188.809 118.857 189.033 118.882 189.287 118.931C189.541 118.97 189.717 119.014 189.814 119.062ZM191.309 127.251V126.914C191.309 125.771 191.475 124.712 191.807 123.735C192.139 122.749 192.617 121.895 193.242 121.172C193.867 120.439 194.624 119.873 195.513 119.473C196.401 119.062 197.397 118.857 198.501 118.857C199.614 118.857 200.615 119.062 201.504 119.473C202.402 119.873 203.164 120.439 203.789 121.172C204.424 121.895 204.907 122.749 205.239 123.735C205.571 124.712 205.737 125.771 205.737 126.914V127.251C205.737 128.394 205.571 129.453 205.239 130.43C204.907 131.406 204.424 132.261 203.789 132.993C203.164 133.716 202.407 134.282 201.519 134.692C200.64 135.093 199.644 135.293 198.53 135.293C197.417 135.293 196.416 135.093 195.527 134.692C194.639 134.282 193.877 133.716 193.242 132.993C192.617 132.261 192.139 131.406 191.807 130.43C191.475 129.453 191.309 128.394 191.309 127.251ZM194.019 126.914V127.251C194.019 128.042 194.111 128.789 194.297 129.492C194.482 130.186 194.761 130.801 195.132 131.338C195.513 131.875 195.986 132.3 196.553 132.612C197.119 132.915 197.778 133.066 198.53 133.066C199.272 133.066 199.922 132.915 200.479 132.612C201.045 132.3 201.514 131.875 201.885 131.338C202.256 130.801 202.534 130.186 202.72 129.492C202.915 128.789 203.013 128.042 203.013 127.251V126.914C203.013 126.133 202.915 125.396 202.72 124.702C202.534 123.999 202.251 123.379 201.87 122.842C201.499 122.295 201.03 121.865 200.464 121.553C199.907 121.24 199.253 121.084 198.501 121.084C197.759 121.084 197.104 121.24 196.538 121.553C195.981 121.865 195.513 122.295 195.132 122.842C194.761 123.379 194.482 123.999 194.297 124.702C194.111 125.396 194.019 126.133 194.019 126.914ZM215.771 119.15V121.23H207.202V119.15H215.771ZM210.103 115.298H212.812V131.074C212.812 131.611 212.896 132.017 213.062 132.29C213.228 132.563 213.442 132.744 213.706 132.832C213.97 132.92 214.253 132.964 214.556 132.964C214.78 132.964 215.015 132.944 215.259 132.905C215.513 132.856 215.703 132.817 215.83 132.788L215.845 135C215.63 135.068 215.347 135.132 214.995 135.19C214.653 135.259 214.238 135.293 213.75 135.293C213.086 135.293 212.476 135.161 211.919 134.897C211.362 134.634 210.918 134.194 210.586 133.579C210.264 132.954 210.103 132.114 210.103 131.06V115.298ZM225.527 135.293C224.424 135.293 223.423 135.107 222.524 134.736C221.636 134.355 220.869 133.823 220.225 133.14C219.59 132.456 219.102 131.646 218.76 130.708C218.418 129.771 218.247 128.745 218.247 127.632V127.017C218.247 125.728 218.438 124.58 218.818 123.574C219.199 122.559 219.717 121.699 220.371 120.996C221.025 120.293 221.768 119.761 222.598 119.399C223.428 119.038 224.287 118.857 225.176 118.857C226.309 118.857 227.285 119.053 228.105 119.443C228.936 119.834 229.614 120.381 230.142 121.084C230.669 121.777 231.06 122.598 231.313 123.545C231.567 124.482 231.694 125.508 231.694 126.621V127.837H219.858V125.625H228.984V125.42C228.945 124.717 228.799 124.033 228.545 123.369C228.301 122.705 227.91 122.158 227.373 121.729C226.836 121.299 226.104 121.084 225.176 121.084C224.561 121.084 223.994 121.216 223.477 121.479C222.959 121.733 222.515 122.114 222.144 122.622C221.772 123.13 221.484 123.75 221.279 124.482C221.074 125.215 220.972 126.06 220.972 127.017V127.632C220.972 128.384 221.074 129.092 221.279 129.756C221.494 130.41 221.802 130.986 222.202 131.484C222.612 131.982 223.105 132.373 223.682 132.656C224.268 132.939 224.932 133.081 225.674 133.081C226.631 133.081 227.441 132.886 228.105 132.495C228.77 132.104 229.351 131.582 229.849 130.928L231.489 132.231C231.147 132.749 230.713 133.242 230.186 133.711C229.658 134.18 229.009 134.561 228.237 134.854C227.476 135.146 226.572 135.293 225.527 135.293ZM245.127 119.15H247.588V134.663C247.588 136.06 247.305 137.251 246.738 138.237C246.172 139.224 245.381 139.971 244.365 140.479C243.359 140.996 242.197 141.255 240.879 141.255C240.332 141.255 239.688 141.167 238.945 140.991C238.213 140.825 237.49 140.537 236.777 140.127C236.074 139.727 235.483 139.185 235.005 138.501L236.426 136.89C237.09 137.69 237.783 138.247 238.506 138.56C239.238 138.872 239.961 139.028 240.674 139.028C241.533 139.028 242.275 138.867 242.9 138.545C243.525 138.223 244.009 137.744 244.351 137.109C244.702 136.484 244.878 135.713 244.878 134.795V122.637L245.127 119.15ZM234.214 127.251V126.943C234.214 125.732 234.355 124.634 234.639 123.647C234.932 122.651 235.347 121.797 235.884 121.084C236.431 120.371 237.09 119.824 237.861 119.443C238.633 119.053 239.502 118.857 240.469 118.857C241.465 118.857 242.334 119.033 243.076 119.385C243.828 119.727 244.463 120.229 244.98 120.894C245.508 121.548 245.923 122.339 246.226 123.267C246.528 124.194 246.738 125.244 246.855 126.416V127.764C246.748 128.926 246.538 129.971 246.226 130.898C245.923 131.826 245.508 132.617 244.98 133.271C244.463 133.926 243.828 134.429 243.076 134.78C242.324 135.122 241.445 135.293 240.439 135.293C239.492 135.293 238.633 135.093 237.861 134.692C237.1 134.292 236.445 133.73 235.898 133.008C235.352 132.285 234.932 131.436 234.639 130.459C234.355 129.473 234.214 128.403 234.214 127.251ZM236.924 126.943V127.251C236.924 128.042 237.002 128.784 237.158 129.478C237.324 130.171 237.573 130.781 237.905 131.309C238.247 131.836 238.682 132.251 239.209 132.554C239.736 132.847 240.366 132.993 241.099 132.993C241.997 132.993 242.739 132.803 243.325 132.422C243.911 132.041 244.375 131.538 244.717 130.913C245.068 130.288 245.342 129.609 245.537 128.877V125.347C245.43 124.81 245.264 124.292 245.039 123.794C244.824 123.286 244.541 122.837 244.189 122.446C243.848 122.046 243.423 121.729 242.915 121.494C242.407 121.26 241.812 121.143 241.128 121.143C240.386 121.143 239.746 121.299 239.209 121.611C238.682 121.914 238.247 122.334 237.905 122.871C237.573 123.398 237.324 124.014 237.158 124.717C237.002 125.41 236.924 126.152 236.924 126.943ZM258.281 135.293C257.178 135.293 256.177 135.107 255.278 134.736C254.39 134.355 253.623 133.823 252.979 133.14C252.344 132.456 251.855 131.646 251.514 130.708C251.172 129.771 251.001 128.745 251.001 127.632V127.017C251.001 125.728 251.191 124.58 251.572 123.574C251.953 122.559 252.471 121.699 253.125 120.996C253.779 120.293 254.521 119.761 255.352 119.399C256.182 119.038 257.041 118.857 257.93 118.857C259.062 118.857 260.039 119.053 260.859 119.443C261.689 119.834 262.368 120.381 262.896 121.084C263.423 121.777 263.813 122.598 264.067 123.545C264.321 124.482 264.448 125.508 264.448 126.621V127.837H252.612V125.625H261.738V125.42C261.699 124.717 261.553 124.033 261.299 123.369C261.055 122.705 260.664 122.158 260.127 121.729C259.59 121.299 258.857 121.084 257.93 121.084C257.314 121.084 256.748 121.216 256.23 121.479C255.713 121.733 255.269 122.114 254.897 122.622C254.526 123.13 254.238 123.75 254.033 124.482C253.828 125.215 253.726 126.06 253.726 127.017V127.632C253.726 128.384 253.828 129.092 254.033 129.756C254.248 130.41 254.556 130.986 254.956 131.484C255.366 131.982 255.859 132.373 256.436 132.656C257.021 132.939 257.686 133.081 258.428 133.081C259.385 133.081 260.195 132.886 260.859 132.495C261.523 132.104 262.104 131.582 262.603 130.928L264.243 132.231C263.901 132.749 263.467 133.242 262.939 133.711C262.412 134.18 261.763 134.561 260.991 134.854C260.229 135.146 259.326 135.293 258.281 135.293ZM270.322 121.641V135H267.612V119.15H270.249L270.322 121.641ZM275.273 119.062L275.259 121.582C275.034 121.533 274.819 121.504 274.614 121.494C274.419 121.475 274.194 121.465 273.94 121.465C273.315 121.465 272.764 121.562 272.285 121.758C271.807 121.953 271.401 122.227 271.069 122.578C270.737 122.93 270.474 123.35 270.278 123.838C270.093 124.316 269.971 124.844 269.912 125.42L269.15 125.859C269.15 124.902 269.243 124.004 269.429 123.164C269.624 122.324 269.922 121.582 270.322 120.938C270.723 120.283 271.23 119.775 271.846 119.414C272.471 119.043 273.213 118.857 274.072 118.857C274.268 118.857 274.492 118.882 274.746 118.931C275 118.97 275.176 119.014 275.273 119.062ZM291.797 135.293C290.693 135.293 289.692 135.107 288.794 134.736C287.905 134.355 287.139 133.823 286.494 133.14C285.859 132.456 285.371 131.646 285.029 130.708C284.688 129.771 284.517 128.745 284.517 127.632V127.017C284.517 125.728 284.707 124.58 285.088 123.574C285.469 122.559 285.986 121.699 286.641 120.996C287.295 120.293 288.037 119.761 288.867 119.399C289.697 119.038 290.557 118.857 291.445 118.857C292.578 118.857 293.555 119.053 294.375 119.443C295.205 119.834 295.884 120.381 296.411 121.084C296.938 121.777 297.329 122.598 297.583 123.545C297.837 124.482 297.964 125.508 297.964 126.621V127.837H286.128V125.625H295.254V125.42C295.215 124.717 295.068 124.033 294.814 123.369C294.57 122.705 294.18 122.158 293.643 121.729C293.105 121.299 292.373 121.084 291.445 121.084C290.83 121.084 290.264 121.216 289.746 121.479C289.229 121.733 288.784 122.114 288.413 122.622C288.042 123.13 287.754 123.75 287.549 124.482C287.344 125.215 287.241 126.06 287.241 127.017V127.632C287.241 128.384 287.344 129.092 287.549 129.756C287.764 130.41 288.071 130.986 288.472 131.484C288.882 131.982 289.375 132.373 289.951 132.656C290.537 132.939 291.201 133.081 291.943 133.081C292.9 133.081 293.711 132.886 294.375 132.495C295.039 132.104 295.62 131.582 296.118 130.928L297.759 132.231C297.417 132.749 296.982 133.242 296.455 133.711C295.928 134.18 295.278 134.561 294.507 134.854C293.745 135.146 292.842 135.293 291.797 135.293ZM304.072 112.5V135H301.348V112.5H304.072ZM318.574 122.197V141.094H315.85V119.15H318.34L318.574 122.197ZM329.253 126.943V127.251C329.253 128.403 329.116 129.473 328.843 130.459C328.569 131.436 328.169 132.285 327.642 133.008C327.124 133.73 326.484 134.292 325.723 134.692C324.961 135.093 324.087 135.293 323.101 135.293C322.095 135.293 321.206 135.127 320.435 134.795C319.663 134.463 319.009 133.979 318.472 133.345C317.935 132.71 317.505 131.948 317.183 131.06C316.87 130.171 316.655 129.17 316.538 128.057V126.416C316.655 125.244 316.875 124.194 317.197 123.267C317.52 122.339 317.944 121.548 318.472 120.894C319.009 120.229 319.658 119.727 320.42 119.385C321.182 119.033 322.061 118.857 323.057 118.857C324.053 118.857 324.937 119.053 325.708 119.443C326.479 119.824 327.129 120.371 327.656 121.084C328.184 121.797 328.579 122.651 328.843 123.647C329.116 124.634 329.253 125.732 329.253 126.943ZM326.528 127.251V126.943C326.528 126.152 326.445 125.41 326.279 124.717C326.113 124.014 325.854 123.398 325.503 122.871C325.161 122.334 324.722 121.914 324.185 121.611C323.647 121.299 323.008 121.143 322.266 121.143C321.582 121.143 320.986 121.26 320.479 121.494C319.98 121.729 319.556 122.046 319.204 122.446C318.853 122.837 318.564 123.286 318.34 123.794C318.125 124.292 317.964 124.81 317.856 125.347V129.141C318.052 129.824 318.325 130.469 318.677 131.074C319.028 131.67 319.497 132.153 320.083 132.524C320.669 132.886 321.406 133.066 322.295 133.066C323.027 133.066 323.657 132.915 324.185 132.612C324.722 132.3 325.161 131.875 325.503 131.338C325.854 130.801 326.113 130.186 326.279 129.492C326.445 128.789 326.528 128.042 326.528 127.251ZM335.654 112.5V135H332.93V112.5H335.654ZM349.351 132.29V124.131C349.351 123.506 349.224 122.964 348.97 122.505C348.726 122.036 348.354 121.675 347.856 121.421C347.358 121.167 346.743 121.04 346.011 121.04C345.327 121.04 344.727 121.157 344.209 121.392C343.701 121.626 343.301 121.934 343.008 122.314C342.725 122.695 342.583 123.105 342.583 123.545H339.873C339.873 122.979 340.02 122.417 340.312 121.86C340.605 121.304 341.025 120.801 341.572 120.352C342.129 119.893 342.793 119.531 343.564 119.268C344.346 118.994 345.215 118.857 346.172 118.857C347.324 118.857 348.34 119.053 349.219 119.443C350.107 119.834 350.801 120.425 351.299 121.216C351.807 121.997 352.061 122.979 352.061 124.16V131.543C352.061 132.07 352.104 132.632 352.192 133.228C352.29 133.823 352.432 134.336 352.617 134.766V135H349.79C349.653 134.688 349.546 134.272 349.468 133.755C349.39 133.228 349.351 132.739 349.351 132.29ZM349.819 125.391L349.849 127.295H347.109C346.338 127.295 345.649 127.358 345.044 127.485C344.438 127.603 343.931 127.783 343.521 128.027C343.11 128.271 342.798 128.579 342.583 128.95C342.368 129.312 342.261 129.736 342.261 130.225C342.261 130.723 342.373 131.177 342.598 131.587C342.822 131.997 343.159 132.324 343.608 132.568C344.067 132.803 344.629 132.92 345.293 132.92C346.123 132.92 346.855 132.744 347.49 132.393C348.125 132.041 348.628 131.611 348.999 131.104C349.38 130.596 349.585 130.103 349.614 129.624L350.771 130.928C350.703 131.338 350.518 131.792 350.215 132.29C349.912 132.788 349.507 133.267 348.999 133.726C348.501 134.175 347.905 134.551 347.212 134.854C346.528 135.146 345.757 135.293 344.897 135.293C343.823 135.293 342.881 135.083 342.07 134.663C341.27 134.243 340.645 133.682 340.195 132.979C339.756 132.266 339.536 131.47 339.536 130.591C339.536 129.741 339.702 128.994 340.034 128.35C340.366 127.695 340.845 127.153 341.47 126.724C342.095 126.284 342.847 125.952 343.726 125.728C344.604 125.503 345.586 125.391 346.67 125.391H349.819ZM359.033 122.534V135H356.323V119.15H358.887L359.033 122.534ZM358.389 126.475L357.261 126.431C357.271 125.347 357.432 124.346 357.744 123.428C358.057 122.5 358.496 121.694 359.062 121.011C359.629 120.327 360.303 119.8 361.084 119.429C361.875 119.048 362.749 118.857 363.706 118.857C364.487 118.857 365.19 118.965 365.815 119.18C366.44 119.385 366.973 119.717 367.412 120.176C367.861 120.635 368.203 121.23 368.438 121.963C368.672 122.686 368.789 123.569 368.789 124.614V135H366.064V124.585C366.064 123.755 365.942 123.091 365.698 122.593C365.454 122.085 365.098 121.719 364.629 121.494C364.16 121.26 363.584 121.143 362.9 121.143C362.227 121.143 361.611 121.284 361.055 121.567C360.508 121.851 360.034 122.241 359.634 122.739C359.243 123.237 358.936 123.809 358.711 124.453C358.496 125.088 358.389 125.762 358.389 126.475ZM379.482 135.293C378.379 135.293 377.378 135.107 376.479 134.736C375.591 134.355 374.824 133.823 374.18 133.14C373.545 132.456 373.057 131.646 372.715 130.708C372.373 129.771 372.202 128.745 372.202 127.632V127.017C372.202 125.728 372.393 124.58 372.773 123.574C373.154 122.559 373.672 121.699 374.326 120.996C374.98 120.293 375.723 119.761 376.553 119.399C377.383 119.038 378.242 118.857 379.131 118.857C380.264 118.857 381.24 119.053 382.061 119.443C382.891 119.834 383.569 120.381 384.097 121.084C384.624 121.777 385.015 122.598 385.269 123.545C385.522 124.482 385.649 125.508 385.649 126.621V127.837H373.813V125.625H382.939V125.42C382.9 124.717 382.754 124.033 382.5 123.369C382.256 122.705 381.865 122.158 381.328 121.729C380.791 121.299 380.059 121.084 379.131 121.084C378.516 121.084 377.949 121.216 377.432 121.479C376.914 121.733 376.47 122.114 376.099 122.622C375.728 123.13 375.439 123.75 375.234 124.482C375.029 125.215 374.927 126.06 374.927 127.017V127.632C374.927 128.384 375.029 129.092 375.234 129.756C375.449 130.41 375.757 130.986 376.157 131.484C376.567 131.982 377.061 132.373 377.637 132.656C378.223 132.939 378.887 133.081 379.629 133.081C380.586 133.081 381.396 132.886 382.061 132.495C382.725 132.104 383.306 131.582 383.804 130.928L385.444 132.231C385.103 132.749 384.668 133.242 384.141 133.711C383.613 134.18 382.964 134.561 382.192 134.854C381.431 135.146 380.527 135.293 379.482 135.293ZM395.449 119.15V121.23H386.88V119.15H395.449ZM389.78 115.298H392.49V131.074C392.49 131.611 392.573 132.017 392.739 132.29C392.905 132.563 393.12 132.744 393.384 132.832C393.647 132.92 393.931 132.964 394.233 132.964C394.458 132.964 394.692 132.944 394.937 132.905C395.19 132.856 395.381 132.817 395.508 132.788L395.522 135C395.308 135.068 395.024 135.132 394.673 135.19C394.331 135.259 393.916 135.293 393.428 135.293C392.764 135.293 392.153 135.161 391.597 134.897C391.04 134.634 390.596 134.194 390.264 133.579C389.941 132.954 389.78 132.114 389.78 131.06V115.298ZM407.974 132.29V124.131C407.974 123.506 407.847 122.964 407.593 122.505C407.349 122.036 406.978 121.675 406.479 121.421C405.981 121.167 405.366 121.04 404.634 121.04C403.95 121.04 403.35 121.157 402.832 121.392C402.324 121.626 401.924 121.934 401.631 122.314C401.348 122.695 401.206 123.105 401.206 123.545H398.496C398.496 122.979 398.643 122.417 398.936 121.86C399.229 121.304 399.648 120.801 400.195 120.352C400.752 119.893 401.416 119.531 402.188 119.268C402.969 118.994 403.838 118.857 404.795 118.857C405.947 118.857 406.963 119.053 407.842 119.443C408.73 119.834 409.424 120.425 409.922 121.216C410.43 121.997 410.684 122.979 410.684 124.16V131.543C410.684 132.07 410.728 132.632 410.815 133.228C410.913 133.823 411.055 134.336 411.24 134.766V135H408.413C408.276 134.688 408.169 134.272 408.091 133.755C408.013 133.228 407.974 132.739 407.974 132.29ZM408.442 125.391L408.472 127.295H405.732C404.961 127.295 404.272 127.358 403.667 127.485C403.062 127.603 402.554 127.783 402.144 128.027C401.733 128.271 401.421 128.579 401.206 128.95C400.991 129.312 400.884 129.736 400.884 130.225C400.884 130.723 400.996 131.177 401.221 131.587C401.445 131.997 401.782 132.324 402.231 132.568C402.69 132.803 403.252 132.92 403.916 132.92C404.746 132.92 405.479 132.744 406.113 132.393C406.748 132.041 407.251 131.611 407.622 131.104C408.003 130.596 408.208 130.103 408.237 129.624L409.395 130.928C409.326 131.338 409.141 131.792 408.838 132.29C408.535 132.788 408.13 133.267 407.622 133.726C407.124 134.175 406.528 134.551 405.835 134.854C405.151 135.146 404.38 135.293 403.521 135.293C402.446 135.293 401.504 135.083 400.693 134.663C399.893 134.243 399.268 133.682 398.818 132.979C398.379 132.266 398.159 131.47 398.159 130.591C398.159 129.741 398.325 128.994 398.657 128.35C398.989 127.695 399.468 127.153 400.093 126.724C400.718 126.284 401.47 125.952 402.349 125.728C403.228 125.503 404.209 125.391 405.293 125.391H408.442Z" fill="black"/>
</svg>
